<svg width="900" height="732" viewBox="0 0 900 732" fill="none" xmlns="http://www.w3.org/2000/svg">
<g id="undraw_Design_notes_re_eklr 1" clip-path="url(#clip0)">
<path id="right-ankle" d="M117.003 722.289L129.262 722.288L135.095 675L117 675.001L117.003 722.289Z" fill="#E0AC69"/>
<path id="left-ankle" d="M166 705.127L177.959 707.827L194.064 662.985L176.414 659L166 705.127Z" fill="#E0AC69"/>
<g id="shoes">
<path id="Vector" d="M114.578 713.291L118.029 713.291L131.501 707.812L138.722 713.29H138.723C142.804 713.291 146.717 714.912 149.603 717.797C152.488 720.682 154.109 724.596 154.11 728.677V729.177L114.579 729.178L114.578 713.291Z" fill="#727272"/>
<path id="Vector_2" d="M163.046 704.975L166.412 705.735L180.76 703.358L186.597 710.292L186.598 710.293C190.578 711.192 194.039 713.635 196.218 717.085C198.397 720.535 199.116 724.71 198.217 728.69L198.107 729.178L159.547 720.472L163.046 704.975Z" fill="#727272"/>
</g>
<path id="pants" d="M95.2613 474.052L106.348 598.262C106.348 598.262 102.194 672.831 115.598 699.072H135.037L144.662 591.452L145.87 519.216L187.546 580.159L161.001 697.312L184.927 699.451L228.001 572.312L180.678 452.959L95.2613 474.052Z" fill="#C3AF91"/>
<path id="man-body" d="M166.893 303.497L133.677 293.433L129.354 280.141L93.734 285.922L86.1658 298.899L61.6663 321.68L90.3703 451.466L89.5014 479.812C89.5014 479.812 107.873 488.083 187.546 469.041C188.501 468.812 186.501 467.812 186.501 467.812L166.893 303.497Z" fill="#383091"/>
<g id="left-arm">
<path id="Vector_3" d="M212.708 461.561C211.332 461.046 210.085 460.235 209.055 459.185C208.026 458.136 207.239 456.873 206.75 455.487C206.262 454.1 206.083 452.623 206.227 451.16C206.371 449.697 206.833 448.284 207.583 447.019L184.507 419.733L202.946 417.529L222.032 443.777C224.073 445.177 225.53 447.277 226.127 449.679C226.723 452.081 226.418 454.618 225.269 456.81C224.12 459.003 222.206 460.697 219.891 461.573C217.576 462.448 215.021 462.444 212.708 461.561V461.561Z" fill="#E0AC69"/>
<path id="left-arm_2" d="M198.437 446.562L159.501 394.423L148.463 302.017L148.785 301.861C151.799 300.41 155.128 299.731 158.47 299.885C161.812 300.039 165.064 301.022 167.932 302.745C170.8 304.468 173.195 306.877 174.901 309.756C176.607 312.634 177.57 315.891 177.705 319.235L180 376.336L218.67 427.367L198.437 446.562Z" fill="#383091"/>
</g>
<g id="man-head">
<path id="Vector_4" d="M106.872 276.252C122.662 276.252 135.463 263.451 135.463 247.661C135.463 231.871 122.662 219.07 106.872 219.07C91.0818 219.07 78.2813 231.871 78.2813 247.661C78.2813 263.451 91.0818 276.252 106.872 276.252Z" fill="#E0AC69"/>
<path id="Vector_5" d="M135.312 226.748C133.401 222.585 129.994 219.293 125.767 217.526C121.578 215.837 116.895 215.841 112.709 217.538C108.929 215.15 104.729 213.256 100.307 213.022C95.8837 212.787 91.2075 214.428 88.4819 218.04C87.8732 218.994 87.1819 219.892 86.416 220.724C84.225 222.753 80.8954 222.46 77.9833 222.046C79.2895 223.165 80.596 224.284 81.9028 225.404C80.3217 225.817 78.7405 226.23 77.1591 226.643C79.0043 227.762 80.8494 228.881 82.6943 230C77.3378 233.215 74.9033 240.233 75.5463 246.606C76.1547 252.64 79.0678 258.157 82.5503 263.061C83.9394 260.13 83.6401 256.622 83.6171 253.32C83.5932 249.832 84.2104 245.87 87.0058 243.921C88.8915 242.605 91.3164 242.547 93.5903 242.559C105.06 242.622 116.518 243.337 127.907 244.702C129.452 244.768 130.959 245.205 132.3 245.976C134.819 247.694 135.31 251.24 135.562 254.351C136.893 249.214 137.544 243.926 137.499 238.62C137.611 234.553 136.866 230.508 135.312 226.748Z" fill="#2F2E41"/>
</g>
<g id="speech-bubble-3">
<path id="Vector_6" d="M132.501 573.812C157.354 573.812 177.501 553.665 177.501 528.812C177.501 503.959 157.354 483.812 132.501 483.812C107.649 483.812 87.5014 503.959 87.5014 528.812C87.5014 553.665 107.649 573.812 132.501 573.812Z" fill="#F0F0F0"/>
<path id="Vector_7" d="M132.501 482.812C130.188 482.812 127.878 482.986 125.591 483.332C124.421 483.502 123.282 483.722 122.151 483.992C113.85 485.906 106.243 490.088 100.18 496.073C94.1165 502.058 89.8355 509.61 87.8142 517.886C85.7929 526.162 86.1108 534.837 88.7325 542.943C91.3543 551.049 96.1766 558.267 102.662 563.792C103.432 564.442 104.211 565.072 105.021 565.672C110.859 570.025 117.648 572.929 124.827 574.146C132.007 575.363 139.373 574.857 146.32 572.67C153.266 570.484 159.593 566.679 164.782 561.57C169.97 556.46 173.871 550.191 176.163 543.279C178.456 536.367 179.074 529.01 177.967 521.812C176.86 514.615 174.06 507.783 169.797 501.879C165.534 495.975 159.93 491.168 153.446 487.853C146.962 484.538 139.784 482.811 132.501 482.812H132.501ZM132.501 572.812C123.146 572.822 114.033 569.833 106.501 564.282C105.682 563.682 104.892 563.062 104.122 562.402C97.8034 557.072 93.1154 550.07 90.5952 542.197C88.0749 534.325 87.8246 525.902 89.8728 517.894C91.9211 509.886 96.185 502.617 102.175 496.921C108.166 491.226 115.64 487.334 123.742 485.692C124.861 485.462 125.981 485.282 127.122 485.142C128.906 484.921 130.703 484.811 132.501 484.812C144.171 484.812 155.363 489.448 163.614 497.699C171.866 505.951 176.501 517.143 176.501 528.812C176.501 540.482 171.866 551.673 163.614 559.925C155.363 568.176 144.171 572.812 132.501 572.812Z" fill="#9D9D9D"/>
<path id="Vector_8" d="M110.501 519.812H154.501C156.158 519.812 157.501 518.469 157.501 516.812C157.501 515.155 156.158 513.812 154.501 513.812H110.501C108.845 513.812 107.501 515.155 107.501 516.812C107.501 518.469 108.845 519.812 110.501 519.812Z" fill="#606060"/>
<path id="Vector_9" d="M110.501 531.812H154.501C156.158 531.812 157.501 530.469 157.501 528.812C157.501 527.155 156.158 525.812 154.501 525.812H110.501C108.845 525.812 107.501 527.155 107.501 528.812C107.501 530.469 108.845 531.812 110.501 531.812Z" fill="#606060"/>
<path id="Vector_10" d="M110.501 543.812H154.501C156.158 543.812 157.501 542.469 157.501 540.812C157.501 539.155 156.158 537.812 154.501 537.812H110.501C108.845 537.812 107.501 539.155 107.501 540.812C107.501 542.469 108.845 543.812 110.501 543.812Z" fill="#606060"/>
</g>
<g id="right-arm">
<path id="Vector_11" d="M135.381 496.586C133.928 496.362 132.542 495.822 131.321 495.004C130.099 494.186 129.072 493.11 128.311 491.852C127.55 490.594 127.074 489.185 126.917 487.723C126.76 486.262 126.925 484.783 127.401 483.392L99.2522 461.378L116.855 455.465L140.887 477.276C143.171 478.231 145.025 479.99 146.098 482.22C147.172 484.45 147.39 486.996 146.711 489.377C146.032 491.757 144.504 493.805 142.416 495.134C140.328 496.463 137.825 496.98 135.381 496.586H135.381Z" fill="#E0AC69"/>
<path id="right-arm_2" d="M79.0014 321.312L61.6663 321.68C58.2657 324.812 55.5596 328.623 53.7226 332.865C51.8857 337.108 50.9587 341.689 51.0014 346.312V428.222L116.05 482.605L137.083 462.237L88.6673 409.489L79.0014 321.312Z" fill="#383091"/>
</g>
<path id="browser-box" d="M900.137 128.573H256.275V540.93H900.137V128.573Z" fill="white"/>
<path id="browser-inner-box" d="M881.725 180.293H274.686V516.535H881.725V180.293Z" fill="#F0F0F0"/>
<g id="browser-bar">
<path id="Vector_12" d="M899.862 128.208H256V155.561H899.862V128.208Z" fill="#474747"/>
<path id="Vector_13" d="M276.327 147.262C279.127 147.262 281.397 144.992 281.397 142.192C281.397 139.392 279.127 137.123 276.327 137.123C273.527 137.123 271.257 139.392 271.257 142.192C271.257 144.992 273.527 147.262 276.327 147.262Z" fill="#FF0000"/>
<path id="Vector_14" d="M295.571 147.262C298.371 147.262 300.64 144.992 300.64 142.192C300.64 139.392 298.371 137.123 295.571 137.123C292.771 137.123 290.501 139.392 290.501 142.192C290.501 144.992 292.771 147.262 295.571 147.262Z" fill="#FAFF00"/>
<path id="Vector_15" d="M314.814 147.262C317.614 147.262 319.884 144.992 319.884 142.192C319.884 139.392 317.614 137.123 314.814 137.123C312.014 137.123 309.744 139.392 309.744 142.192C309.744 144.992 312.014 147.262 314.814 147.262Z" fill="#05FF00"/>
</g>
<path id="box-1" d="M642.733 215.181H512.75V288.529H642.733V215.181Z" fill="#3F5DFF"/>
<path id="box-5" d="M642.733 308.955H512.75V387.873H642.733V308.955Z" fill="#FFEF5F"/>
<path id="box-4" d="M826.568 215.181H670.587V331.305H826.568V215.181Z" fill="#FF6262"/>
<path id="box-2" d="M826.568 365.523H670.587V481.647H826.568V365.523Z" fill="#70FF87"/>
<path id="box-3" d="M486.568 215.181H330.587V331.305H486.568V215.181Z" fill="#CA5AFF"/>
<path id="inner-words-1" d="M483.494 401.647H333.494C332.566 401.647 331.675 401.279 331.019 400.622C330.363 399.966 329.994 399.076 329.994 398.147C329.994 397.219 330.363 396.329 331.019 395.672C331.675 395.016 332.566 394.647 333.494 394.647H483.494C484.422 394.647 485.312 395.016 485.969 395.672C486.625 396.329 486.994 397.219 486.994 398.147C486.994 399.076 486.625 399.966 485.969 400.622C485.312 401.279 484.422 401.647 483.494 401.647Z" fill="#D0D0D0"/>
<path id="inner-words-1_2" d="M483.494 381.647H333.494C332.566 381.647 331.675 381.279 331.019 380.622C330.363 379.966 329.994 379.076 329.994 378.147C329.994 377.219 330.363 376.329 331.019 375.672C331.675 375.016 332.566 374.647 333.494 374.647H483.494C484.422 374.647 485.312 375.016 485.969 375.672C486.625 376.329 486.994 377.219 486.994 378.147C486.994 379.076 486.625 379.966 485.969 380.622C485.312 381.279 484.422 381.647 483.494 381.647Z" fill="#D0D0D0"/>
<path id="inner-words-1_3" d="M483.494 421.647H333.494C332.566 421.647 331.675 421.279 331.019 420.622C330.363 419.966 329.994 419.076 329.994 418.147C329.994 417.219 330.363 416.329 331.019 415.672C331.675 415.016 332.566 414.647 333.494 414.647H483.494C484.422 414.647 485.312 415.016 485.969 415.672C486.625 416.329 486.994 417.219 486.994 418.147C486.994 419.076 486.625 419.966 485.969 420.622C485.312 421.279 484.422 421.647 483.494 421.647V421.647Z" fill="#D0D0D0"/>
<path id="inner-words-1_4" d="M483.494 441.647H333.494C332.566 441.647 331.675 441.279 331.019 440.622C330.363 439.966 329.994 439.076 329.994 438.147C329.994 437.219 330.363 436.329 331.019 435.672C331.675 435.016 332.566 434.647 333.494 434.647H483.494C484.422 434.647 485.312 435.016 485.969 435.672C486.625 436.329 486.994 437.219 486.994 438.147C486.994 439.076 486.625 439.966 485.969 440.622C485.312 441.279 484.422 441.647 483.494 441.647V441.647Z" fill="#D0D0D0"/>
<path id="inner-words-1_5" d="M483.494 461.647H333.494C332.566 461.647 331.675 461.279 331.019 460.622C330.363 459.966 329.994 459.076 329.994 458.147C329.994 457.219 330.363 456.329 331.019 455.672C331.675 455.016 332.566 454.647 333.494 454.647H483.494C484.422 454.647 485.312 455.016 485.969 455.672C486.625 456.329 486.994 457.219 486.994 458.147C486.994 459.076 486.625 459.966 485.969 460.622C485.312 461.279 484.422 461.647 483.494 461.647Z" fill="#D0D0D0"/>
<path id="inner-words-1_6" d="M483.494 481.647H333.494C332.566 481.647 331.675 481.279 331.019 480.622C330.363 479.966 329.994 479.076 329.994 478.147C329.994 477.219 330.363 476.329 331.019 475.672C331.675 475.016 332.566 474.647 333.494 474.647H483.494C484.422 474.647 485.312 475.016 485.969 475.672C486.625 476.329 486.994 477.219 486.994 478.147C486.994 479.076 486.625 479.966 485.969 480.622C485.312 481.279 484.422 481.647 483.494 481.647Z" fill="#D0D0D0"/>
<path id="inner-words-2" d="M639.742 421.647H515.742C514.813 421.647 513.923 421.279 513.267 420.622C512.61 419.966 512.242 419.076 512.242 418.147C512.242 417.219 512.61 416.329 513.267 415.672C513.923 415.016 514.813 414.647 515.742 414.647H639.742C640.67 414.647 641.56 415.016 642.216 415.672C642.873 416.329 643.242 417.219 643.242 418.147C643.242 419.076 642.873 419.966 642.216 420.622C641.56 421.279 640.67 421.647 639.742 421.647V421.647Z" fill="#D0D0D0"/>
<path id="inner-words-2_2" d="M639.742 441.647H515.742C514.813 441.647 513.923 441.279 513.267 440.622C512.61 439.966 512.242 439.076 512.242 438.147C512.242 437.219 512.61 436.329 513.267 435.672C513.923 435.016 514.813 434.647 515.742 434.647H639.742C640.67 434.647 641.56 435.016 642.216 435.672C642.873 436.329 643.242 437.219 643.242 438.147C643.242 439.076 642.873 439.966 642.216 440.622C641.56 441.279 640.67 441.647 639.742 441.647V441.647Z" fill="#D0D0D0"/>
<path id="inner-words-2_3" d="M639.742 461.647H515.742C514.813 461.647 513.923 461.279 513.267 460.622C512.61 459.966 512.242 459.076 512.242 458.147C512.242 457.219 512.61 456.329 513.267 455.672C513.923 455.016 514.813 454.647 515.742 454.647H639.742C640.67 454.647 641.56 455.016 642.216 455.672C642.873 456.329 643.242 457.219 643.242 458.147C643.242 459.076 642.873 459.966 642.216 460.622C641.56 461.279 640.67 461.647 639.742 461.647V461.647Z" fill="#D0D0D0"/>
<path id="inner-words-2_4" d="M639.742 481.647H515.742C514.813 481.647 513.923 481.279 513.267 480.622C512.61 479.966 512.242 479.076 512.242 478.147C512.242 477.219 512.61 476.329 513.267 475.672C513.923 475.016 514.813 474.647 515.742 474.647H639.742C640.67 474.647 641.56 475.016 642.216 475.672C642.873 476.329 643.242 477.219 643.242 478.147C643.242 479.076 642.873 479.966 642.216 480.622C641.56 481.279 640.67 481.647 639.742 481.647V481.647Z" fill="#D0D0D0"/>
<g id="speech-bubble-1">
<path id="Vector_16" d="M621.478 80.642L577.044 247.796L579.08 248.337L623.097 82.748L621.478 80.642Z" fill="#9D9D9D"/>
<path id="Vector_17" d="M624.224 91C649.076 91 669.224 70.8528 669.224 46C669.224 21.1472 649.076 1 624.224 1C599.371 1 579.224 21.1472 579.224 46C579.224 70.8528 599.371 91 624.224 91Z" fill="#F0F0F0"/>
<path id="Vector_18" d="M624.494 1C622.181 1.00028 619.871 1.17409 617.584 1.52C616.414 1.69 615.274 1.90995 614.144 2.18C605.842 4.09359 598.235 8.27614 592.172 14.261C586.109 20.2459 581.828 27.7976 579.807 36.0738C577.785 44.3499 578.103 53.0249 580.725 61.1309C583.347 69.2369 588.169 76.455 594.654 81.98C595.424 82.63 596.204 83.26 597.014 83.86C602.852 88.2128 609.64 91.117 616.82 92.3337C624 93.5504 631.366 93.0447 638.312 90.8583C645.258 88.6719 651.586 84.8672 656.774 79.7575C661.963 74.6477 665.864 68.3789 668.156 61.467C670.448 54.5551 671.066 47.1976 669.96 40C668.853 32.8025 666.053 25.9707 661.79 20.0668C657.527 14.1629 651.922 9.35578 645.438 6.04096C638.955 2.72615 631.776 0.998433 624.494 1V1ZM624.494 91C615.138 91.0101 606.026 88.0204 598.494 82.47C597.674 81.87 596.884 81.25 596.114 80.59C589.796 75.2602 585.108 68.2576 582.588 60.3853C580.068 52.5129 579.817 44.0896 581.865 36.0815C583.914 28.0734 588.177 20.8047 594.168 15.1091C600.158 9.41353 607.633 5.52171 615.734 3.88C616.854 3.65 617.974 3.47 619.114 3.33C620.899 3.10897 622.696 2.99876 624.494 3C636.163 3 647.355 7.6357 655.607 15.8873C663.858 24.1389 668.494 35.3305 668.494 47C668.494 58.6695 663.858 69.8611 655.607 78.1127C647.355 86.3643 636.163 91 624.494 91V91Z" fill="#9D9D9D"/>
<path id="Vector_19" d="M602.494 38L646.494 38C648.151 38 649.494 36.6569 649.494 35C649.494 33.3431 648.151 32 646.494 32L602.494 32C600.837 32 599.494 33.3431 599.494 35C599.494 36.6569 600.837 38 602.494 38Z" fill="#606060"/>
<path id="Vector_20" d="M602.494 50L646.494 50C648.151 50 649.494 48.6569 649.494 47C649.494 45.3431 648.151 44 646.494 44L602.494 44C600.837 44 599.494 45.3431 599.494 47C599.494 48.6569 600.837 50 602.494 50Z" fill="#606060"/>
<path id="Vector_21" d="M602.494 62L646.494 62C648.151 62 649.494 60.6569 649.494 59C649.494 57.3431 648.151 56 646.494 56L602.494 56C600.837 56 599.494 57.3431 599.494 59C599.494 60.6569 600.837 62 602.494 62Z" fill="#606060"/>
</g>
<g id="speech-bubble-2">
<path id="Vector_22" d="M749.734 422.592L705.717 588.182L707.336 590.288L751.77 423.133L749.734 422.592Z" fill="#9D9D9D"/>
<path id="Vector_23" d="M700.494 674C725.347 674 745.494 653.853 745.494 629C745.494 604.147 725.347 584 700.494 584C675.641 584 655.494 604.147 655.494 629C655.494 653.853 675.641 674 700.494 674Z" fill="#F0F0F0"/>
<path id="Vector_24" d="M700.224 582C697.91 582 695.6 582.174 693.313 582.52C692.143 582.69 691.004 582.91 689.873 583.18C681.572 585.094 673.965 589.276 667.902 595.261C661.839 601.246 657.558 608.798 655.536 617.074C653.515 625.35 653.833 634.025 656.455 642.131C659.076 650.237 663.899 657.455 670.384 662.98C671.154 663.63 671.933 664.26 672.744 664.86C678.582 669.213 685.37 672.117 692.55 673.334C699.729 674.55 707.095 674.045 714.042 671.858C720.988 669.672 727.315 665.867 732.504 660.758C737.692 655.648 741.593 649.379 743.886 642.467C746.178 635.555 746.796 628.198 745.689 621C744.582 613.803 741.782 606.971 737.519 601.067C733.256 595.163 727.652 590.356 721.168 587.041C714.684 583.726 707.506 581.998 700.224 582V582ZM700.224 672C690.868 672.01 681.755 669.02 674.224 663.47C673.404 662.87 672.614 662.25 671.844 661.59C665.525 656.26 660.837 649.258 658.317 641.385C655.797 633.513 655.547 625.09 657.595 617.081C659.643 609.073 663.907 601.805 669.898 596.109C675.888 590.414 683.363 586.522 691.464 584.88C692.583 584.65 693.703 584.47 694.844 584.33C696.628 584.109 698.425 583.999 700.224 584C711.893 584 723.085 588.636 731.336 596.887C739.588 605.139 744.224 616.33 744.224 628C744.224 639.67 739.588 650.861 731.336 659.113C723.085 667.364 711.893 672 700.224 672Z" fill="#9D9D9D"/>
<path id="Vector_25" d="M678.494 620H722.494C724.151 620 725.494 618.657 725.494 617C725.494 615.343 724.151 614 722.494 614H678.494C676.837 614 675.494 615.343 675.494 617C675.494 618.657 676.837 620 678.494 620Z" fill="#606060"/>
<path id="Vector_26" d="M678.494 632H722.494C724.151 632 725.494 630.657 725.494 629C725.494 627.343 724.151 626 722.494 626H678.494C676.837 626 675.494 627.343 675.494 629C675.494 630.657 676.837 632 678.494 632Z" fill="#606060"/>
<path id="Vector_27" d="M678.494 644H722.494C724.151 644 725.494 642.657 725.494 641C725.494 639.343 724.151 638 722.494 638H678.494C676.837 638 675.494 639.343 675.494 641C675.494 642.657 676.837 644 678.494 644Z" fill="#606060"/>
</g>
<path id="platform" d="M347.485 731.191H1.19069C0.875498 731.19 0.573534 731.064 0.350983 730.841C0.128431 730.618 0.00344849 730.315 0.00344849 730C0.00344849 729.685 0.128431 729.382 0.350983 729.159C0.573534 728.936 0.875498 728.81 1.19069 728.809H347.485C347.8 728.81 348.102 728.936 348.324 729.159C348.547 729.382 348.672 729.685 348.672 730C348.672 730.315 348.547 730.618 348.324 730.841C348.102 731.064 347.8 731.19 347.485 731.191V731.191Z" fill="#CACACA"/>
</g>
<defs>
<clipPath id="clip0">
<rect width="899.866" height="731.191" fill="white"/>
</clipPath>
</defs>
</svg>
